<?xml version="1.0" encoding="UTF-8" standalone="no"?>
<!-- Created with Inkscape (http://www.inkscape.org/) -->

<svg
   width="210mm"
   height="297mm"
   viewBox="0 0 210 297"
   version="1.1"
   id="svg5"
   xml:space="preserve"
   xmlns="http://www.w3.org/2000/svg"
   xmlns:svg="http://www.w3.org/2000/svg"><defs
     id="defs2" /><g
     id="layer1"><path
       style="fill:#ffffff;stroke-width:0.264477"
       d="m 106.71559,229.67415 c -11.592947,-2.09701 -25.222827,-13.37924 -40.102517,-33.19513 -10.8359,-14.43062 -18.15822,-27.21294 -23.02814,-40.19948 -6.93405,-18.49091 -9.18833,-37.61425 -6.57814,-55.80322 2.36233,-16.461712 7.24707,-30.602613 14.33431,-41.49652 10.10362,-15.53045 24.26573,-24.985385 42.99621,-28.70521 3.60157,-0.715261 3.69717,-0.692118 1.35996,0.329201 -3.53713,1.545661 -7.04706,4.401728 -9.06099,7.373014 -2.18537,3.224236 -4.51661,8.913631 -5.47945,13.372594 -1.26038,5.836877 -1.3866,13.628351 -0.29165,18.0035 1.64064,6.555569 4.57853,9.635459 9.23556,9.681949 l 1.94126,0.0194 -0.16095,0.92565 c -1.11323,6.40225 -1.35655,13.142191 -0.5992,16.598011 0.56029,2.55662 1.61053,4.829801 2.7343,5.918211 0.8304,0.80428 1.06236,0.88776 2.42376,0.87238 1.1034,-0.0125 1.89397,-0.21516 2.96013,-0.7589 4.555847,-2.32349 8.152717,-6.080961 12.904327,-13.480511 0.94287,-1.468321 1.65083,-2.491161 1.57323,-2.272971 -0.0776,0.21819 -1.68594,3.967061 -3.5741,8.330811 -3.34743,7.736311 -5.4681,13.116611 -6.69367,16.982291 l -0.60474,1.90748 -5.439167,3.24929 c -5.00082,2.98742 -5.66334,3.47313 -8.22059,6.02663 -1.57359,1.57127 -3.0916,3.36016 -3.49571,4.11948 -2.05002,3.85198 -2.00454,9.05559 0.092,10.52397 1.01702,0.71231 3.0676,0.55965 4.92075,-0.36633 3.05829,-1.52817 7.94315,-7.49567 10.285477,-12.56509 0.53107,-1.14938 1.81305,-4.43386 2.84882,-7.29884 l 1.88324,-5.20906 1.61384,-1.07711 c 1.89195,-1.26272 5.15566,-4.59594 6.4361,-6.57315 0.49444,-0.76351 0.94605,-1.34112 1.00358,-1.2836 0.0575,0.0575 -0.37852,1.0654 -0.96899,2.23972 -3.49401,6.94889 -5.30307,13.82279 -5.33391,20.26733 -0.0199,4.15071 0.45094,6.53204 1.88592,9.53881 2.28718,4.79244 6.16579,6.27618 10.73313,4.1059 3.25497,-1.54668 6.30369,-5.13808 9.20502,-10.84354 3.07463,-6.04627 4.44069,-11.04708 4.48577,-16.42138 0.0238,-2.83218 -0.0618,-3.56631 -0.59717,-5.12337 -2.22699,-6.47709 -8.216,-5.15683 -13.6432,3.00761 -2.12996,3.20422 -5.46069,10.11152 -6.87038,14.24787 -1.64199,4.81796 -1.50516,4.99914 0.22505,0.29799 4.92853,-13.39139 10.55075,-20.91393 15.68619,-20.98816 3.10884,-0.0449 4.84003,2.87323 4.83094,8.14324 -0.007,4.24617 -0.91723,7.7464 -3.30473,12.71268 -3.90194,8.11648 -9.14935,13.7452 -13.93812,14.95096 -1.7276,0.435 -3.0635,-0.003 -4.52088,-1.48075 -4.06761,-4.12568 -5.06601,-12.76045 -2.54776,-22.03446 1.23382,-4.5438 4.01638,-10.80826 6.53352,-14.70913 6.72109,-10.415801 15.77603,-14.705002 23.29022,-11.032251 2.77898,1.35829 5.90764,4.80691 7.6324,8.41293 1.40062,2.928341 1.40332,3.394021 0.0321,5.549381 -5.15245,8.09888 -7.84235,14.12444 -15.65757,35.07403 -3.29011,8.81951 -5.7616,14.88249 -7.34838,18.02684 -2.30212,4.56185 -5.76276,8.47293 -8.83557,9.98558 -1.69808,0.83593 -1.99045,0.89446 -4.46739,0.89446 -2.36882,0 -2.81097,-0.0788 -4.16178,-0.74214 -1.86487,-0.91572 -3.44309,-2.66061 -4.19733,-4.64059 -0.62988,-1.6535 -1.01408,-5.06384 -0.57049,-5.06384 0.14945,0 0.34023,0.17852 0.42396,0.3967 0.25591,0.66686 1.42778,0.47499 1.94801,-0.31895 0.69197,-1.05604 0.64989,-4.13269 -0.0734,-5.36716 -1.64191,-2.80225 -3.79996,0.47651 -3.47566,5.28062 0.36187,5.36042 3.06987,9.39397 7.13596,10.62894 6.60399,2.0058 14.08758,-2.84898 19.83612,-12.86815 2.47213,-4.3087 5.00805,-11.0144 7.85122,-20.76091 4.57982,-15.69981 5.56904,-18.5213 8.66968,-24.72797 1.78012,-3.56335 3.96101,-7.16821 4.19507,-6.93417 0.3264,0.32638 0.62842,3.80498 0.63649,7.33088 0.0139,6.06631 -0.95992,10.49941 -3.40421,15.49704 -1.49458,3.05587 -3.02212,4.86716 -4.10467,4.86716 -0.98963,0 -1.29841,-0.95941 -1.16512,-3.62018 0.0918,-1.83345 0.25598,-2.46219 1.07011,-4.09929 1.27295,-2.55973 3.01209,-4.49826 4.83618,-5.39066 1.57795,-0.77198 1.71491,-1.06733 0.3566,-0.76901 -1.10467,0.24262 -3.21881,2.21171 -4.5168,4.2069 -2.57305,3.95516 -2.82854,10.00861 -0.45711,10.83036 2.74664,0.95177 5.9065,-2.64409 7.37017,-8.38711 1.22605,-4.81067 1.33399,-12.09148 0.2714,-18.30665 l -0.52439,-3.06718 0.83989,-1.23622 c 0.46194,-0.67991 1.9635,-2.759121 3.3368,-4.620461 1.3733,-1.86134 2.44376,-3.4374 2.3788,-3.50235 -0.17199,-0.17199 -2.48684,2.77907 -4.57213,5.82872 -0.99461,1.454591 -1.89357,2.743591 -1.99768,2.864451 -0.10411,0.12086 -0.44129,-0.52642 -0.74929,-1.43839 -0.85021,-2.517501 -2.54405,-5.143811 -4.76899,-7.394341 -2.93129,-2.96502 -5.75784,-4.21382 -9.53755,-4.21382 -6.1415,0 -12.02896,3.95528 -17.00916,11.427001 -0.74724,1.12107 -1.40119,1.99573 -1.45322,1.9437 -0.052,-0.052 0.21894,-0.71332 0.60217,-1.46954 0.38322,-0.756221 0.63726,-1.434461 0.56453,-1.507181 -0.0727,-0.0727 -0.45103,0.50441 -0.84065,1.282531 -1.32515,2.64645 -3.5135,5.64111 -5.7208,7.82864 -2.02315,2.00503 -4.1078,3.67912 -4.30997,3.46115 -0.15226,-0.16417 1.69705,-6.64252 3.19642,-11.19738 1.79209,-5.444131 4.47978,-12.259921 6.69803,-16.985752 0.903,-1.92378 1.55936,-3.63118 1.45859,-3.79423 -0.10268,-0.16613 -0.85675,0.98263 -1.71519,2.61292 -3.86856,7.346901 -7.6449,12.769761 -11.2085,16.095561 -3.21098,2.996691 -5.961847,4.546091 -8.117987,4.572361 -2.21496,0.027 -3.99056,-2.44721 -4.47646,-6.237701 -0.44935,-3.50545 0.46926,-10.797451 2.07507,-16.472081 l 0.47994,-1.696 2.62725,-1.34847 c 5.072457,-2.60351 10.191797,-6.689279 15.681707,-12.515672 10.94301,-11.613706 15.94813,-20.519194 16.01619,-28.497206 0.0207,-2.42144 -0.038,-2.74769 -0.69466,-3.864664 -0.84327,-1.434359 -1.86028,-1.953332 -3.41837,-1.744359 -3.56599,0.478275 -10.62821,6.09331 -15.72341,12.501374 -6.51168,8.189541 -12.466867,20.107729 -15.585437,31.191367 -0.53206,1.89096 -1.00633,3.56962 -1.05395,3.73036 -0.0936,0.31598 -1.57338,0.62581 -3.01123,0.63048 -3.667,0.0119 -6.61172,-3.35349 -7.98033,-9.120434 -0.43503,-1.833125 -0.5626,-3.199209 -0.55566,-5.950581 0.0322,-12.760856 5.73956,-26.596821 12.9437,-31.37841 1.73444,-1.151195 5.53264,-2.544552 8.256817,-3.028984 2.56829,-0.456712 14.99009,-0.461202 18.6461,-0.0067 19.82771,2.464693 37.15358,12.650302 48.1905,28.330447 7.42214,10.544643 12.13315,24.104512 13.27707,38.215953 0.92834,11.452091 1.02238,35.452611 0.16786,42.844191 -0.53176,4.59973 -1.98241,11.83881 -3.07386,15.33927 -3.58518,11.49824 -9.57298,21.93454 -22.45741,39.14159 -19.03956,25.42718 -28.19754,33.65486 -40.3359,36.23842 -2.42622,0.5164 -7.85531,0.7364 -9.74365,0.39482 z m -3.08381,-45.60408 c 0,-0.79687 -1.86009,-6.78074 -3.04836,-9.80655 -6.556697,-16.69585 -16.861317,-28.35783 -31.202277,-35.31235 -5.47843,-2.65672 -10.0542,-4.20065 -15.64951,-5.28038 -3.73892,-0.7215 -6.5678,-0.95921 -6.80713,-0.57199 -0.22218,0.35948 0.19681,3.6831 0.93854,7.44476 1.26945,6.43804 4.68743,14.43336 8.35243,19.53801 3.53417,4.92242 8.91102,10.05437 14.2161,13.56859 8.38767,5.55621 19.38174,9.46845 29.49744,10.49667 3.423997,0.34804 3.702767,0.34226 3.702767,-0.0768 z m 20.76197,-0.1889 c 12.94322,-1.49566 26.35378,-7.71567 35.51284,-16.47134 9.08993,-8.68959 14.01459,-19.0192 15.80311,-33.14744 l 0.17576,-1.38846 h -1.31259 c -3.12837,0 -10.9469,1.79713 -15.79624,3.63086 -16.05662,6.07164 -28.03465,17.60178 -35.26985,33.95101 -1.62063,3.66211 -4.53495,12.26725 -4.53495,13.39039 0,0.71234 -0.41654,0.70965 5.42192,0.035 z M 86.141793,137.49992 c -0.81896,-0.44498 -1.55283,-2.10755 -1.55283,-3.5179 0,-1.35695 0.65135,-3.75445 1.44605,-5.32264 1.47323,-2.90714 5.14387,-6.47889 9.89881,-9.63214 2.26167,-1.49982 6.258227,-3.87282 6.522547,-3.87282 0.39897,0 -3.457527,9.84756 -5.437507,13.88469 -3.27326,6.67406 -7.75267,10.15841 -10.87707,8.46081 z m 28.871197,-34.13 c -0.005,-0.15402 0.16633,-0.51106 0.3799,-0.79341 0.21357,-0.28235 0.3921,-0.38735 0.39673,-0.23333 0.005,0.15402 -0.16633,0.51106 -0.37991,0.79341 -0.21357,0.28235 -0.39209,0.38735 -0.39672,0.23333 z M 94.903823,77.478958 c 0,-0.75133 2.48283,-7.779362 4.00912,-11.348443 5.720457,-13.376684 12.342727,-24.273789 18.343647,-30.184939 2.61889,-2.5797 4.99323,-4.145658 7.0246,-4.632952 3.63837,-0.872786 5.20445,2.783934 3.7034,8.647226 -2.02359,7.904432 -7.95124,17.032884 -16.80442,25.87848 -4.45819,4.454372 -8.37056,7.628108 -12.077067,9.796988 -3.46828,2.02948 -4.19928,2.35042 -4.19928,1.84364 z"
       id="path795" /></g></svg>
